<svg id="casino" xmlns="http://www.w3.org/2000/svg" width="60" height="60" viewBox="0 0 60 60">
  <g id="Group_1699" data-name="Group 1699">
    <g id="Group_1698" data-name="Group 1698">
      <path id="Path_4901" data-name="Path 4901" d="M85.119,61.135a1,1,0,1,0,0-2H82.094a22.027,22.027,0,0,0-.491-3.722l2.923-.783a1,1,0,0,0-.517-1.932l-2.921.783a21.718,21.718,0,0,0-1.445-3.465L82.269,48.5a1,1,0,1,0-1-1.732L78.64,48.285a22.087,22.087,0,0,0-2.283-2.976L78.5,43.163a1,1,0,0,0-1.414-1.414l-2.146,2.146a22.185,22.185,0,0,0-2.977-2.283l1.517-2.628a1,1,0,1,0-1.732-1l-1.516,2.625a21.812,21.812,0,0,0-3.465-1.444l.784-2.919a1,1,0,0,0-1.932-.519l-.784,2.923a22.012,22.012,0,0,0-3.722-.49V35.135a1,1,0,0,0-2,0V38.16a22.029,22.029,0,0,0-3.721.491l-.783-2.923a1,1,0,0,0-1.931.517l.782,2.922A21.812,21.812,0,0,0,50,40.611l-1.515-2.626a1,1,0,1,0-1.732,1l1.517,2.63A22.181,22.181,0,0,0,45.292,43.9l-2.145-2.147a1,1,0,1,0-1.415,1.414l2.145,2.147A22.17,22.17,0,0,0,41.6,48.289l-2.629-1.52a1,1,0,0,0-1,1.732l2.627,1.518a21.812,21.812,0,0,0-1.444,3.465L36.228,52.7a1,1,0,0,0-.519,1.932l2.925.786a22.014,22.014,0,0,0-.49,3.721l-3.026,0h0a1,1,0,0,0,0,2l3.028,0a22.027,22.027,0,0,0,.491,3.722l-2.924.78a1,1,0,1,0,.515,1.933l2.925-.781A21.839,21.839,0,0,0,40.6,70.255l-2.627,1.513a1,1,0,0,0,1,1.734L41.6,71.985a22.086,22.086,0,0,0,2.283,2.976L41.733,77.1a1,1,0,0,0,1.413,1.416L45.3,76.376a22.17,22.17,0,0,0,2.976,2.281l-1.52,2.628a1,1,0,0,0,1.732,1L50,79.66A21.812,21.812,0,0,0,53.466,81.1l-.785,2.919a1,1,0,0,0,.706,1.226,1.011,1.011,0,0,0,.26.034,1,1,0,0,0,.965-.74l.786-2.924a21.921,21.921,0,0,0,3.721.491l0,3.024a1,1,0,0,0,1,1h0a1,1,0,0,0,1-1l0-3.026a21.932,21.932,0,0,0,3.722-.491l.781,2.923a1,1,0,1,0,1.932-.517L66.773,81.1a21.8,21.8,0,0,0,3.464-1.444l1.514,2.626a1,1,0,1,0,1.732-1l-1.515-2.63a22.147,22.147,0,0,0,2.976-2.283l2.143,2.146A1,1,0,0,0,78.5,77.107L76.358,74.96a22.1,22.1,0,0,0,2.283-2.976L81.266,73.5a1,1,0,0,0,1-1.732l-2.624-1.517a21.848,21.848,0,0,0,1.444-3.465l2.918.784a.978.978,0,0,0,.26.035,1,1,0,0,0,.259-1.966L81.6,64.856a21.922,21.922,0,0,0,.491-3.721h3.025Zm-25,19a20,20,0,1,1,20-20A20.023,20.023,0,0,1,60.119,80.135Z" transform="translate(-30.119 -30.135)" fill="#fff"/>
      <path id="Path_4902" data-name="Path 4902" d="M155,140a2.993,2.993,0,0,0-2.815,2H148.91a6.008,6.008,0,0,0-4.91-4.91v-3.274a3,3,0,1,0-2,0v3.275a6.008,6.008,0,0,0-4.91,4.91h-3.274a3,3,0,1,0,0,2h3.274a6.008,6.008,0,0,0,4.91,4.91v3.274a3,3,0,1,0,2,0V148.91a6.008,6.008,0,0,0,4.91-4.91h3.275A2.994,2.994,0,1,0,155,140Zm-24,4a1,1,0,1,1,1-1A1,1,0,0,1,131,144Zm12-14a1,1,0,1,1-1,1A1,1,0,0,1,143,130Zm0,26a1,1,0,1,1,1-1A1,1,0,0,1,143,156Zm0-9a4,4,0,1,1,4-4A4,4,0,0,1,143,147Zm12-3a1,1,0,1,1,1-1A1,1,0,0,1,155,144Z" transform="translate(-113 -113)" fill="#fff"/>
      <path id="Path_4903" data-name="Path 4903" d="M30,0A30,30,0,1,0,60,30,30.034,30.034,0,0,0,30,0Zm0,58A28,28,0,1,1,58,30,28.032,28.032,0,0,1,30,58Z" fill="#fff"/>
    </g>
  </g>
</svg>
