<svg xmlns="http://www.w3.org/2000/svg" width="62.313" height="60" viewBox="0 0 62.313 60">
  <g id="dice" transform="translate(0 -0.499)">
    <path id="Path_4905" data-name="Path 4905" d="M251.356,61.833a3.577,3.577,0,0,0-4.076,2.972,3.566,3.566,0,1,0,4.079-2.971Zm.568,3.7a1.136,1.136,0,0,1-2.038.49,1.122,1.122,0,0,1-.2-.839,1.135,1.135,0,1,1,2.242.349Zm0,0" transform="translate(-217.147 -53.832)" fill="#fff"/>
    <path id="Path_4906" data-name="Path 4906" d="M313.126,140.69a3.562,3.562,0,0,0,2.97,4.074,3.491,3.491,0,0,0,.551.043,3.563,3.563,0,0,0,2.883-5.664,3.539,3.539,0,0,0-2.331-1.421h0A3.569,3.569,0,0,0,313.126,140.69Zm4.439-.114a1.128,1.128,0,0,1,.2.841,1.141,1.141,0,0,1-1.3.945,1.133,1.133,0,0,1,.177-2.252,1.1,1.1,0,0,1,.176.014A1.126,1.126,0,0,1,317.565,140.576Zm0,0" transform="translate(-274.977 -120.484)" fill="#fff"/>
    <path id="Path_4907" data-name="Path 4907" d="M377.641,227.241a3.563,3.563,0,1,0-.642-2.653A3.541,3.541,0,0,0,377.641,227.241Zm1.76-2.277a1.133,1.133,0,0,1,1.119-.955,1.107,1.107,0,0,1,.176.014h0a1.132,1.132,0,1,1-1.3.941Zm0,0" transform="translate(-331.078 -194.171)" fill="#fff"/>
    <path id="Path_4908" data-name="Path 4908" d="M61.109,6.993A6.2,6.2,0,0,0,57.039,4.5L50.2,3.434a1.216,1.216,0,0,0-.376,2.4L56.663,6.9a3.819,3.819,0,0,1,3.172,4.347L55.9,36.346a3.806,3.806,0,0,1-4.348,3.172L37.9,37.38V28.864a6.244,6.244,0,0,0-6.239-6.235H24.617L27.2,6.147A3.819,3.819,0,0,1,31.55,2.978L40.278,4.35a1.216,1.216,0,1,0,.377-2.4L31.928.576A6.251,6.251,0,0,0,24.8,5.771l-2.64,16.858H6.239A6.244,6.244,0,0,0,0,28.864v25.4A6.245,6.245,0,0,0,6.239,60.5h25.42A6.245,6.245,0,0,0,37.9,54.261V39.841L51.179,41.92a6.238,6.238,0,0,0,7.125-5.2l3.933-25.094A6.188,6.188,0,0,0,61.109,6.993ZM35.466,54.261a3.812,3.812,0,0,1-3.808,3.807H6.239a3.812,3.812,0,0,1-3.808-3.807v-25.4a3.81,3.81,0,0,1,3.808-3.8h25.42a3.81,3.81,0,0,1,3.807,3.8v25.4Zm0,0" fill="#fff"/>
    <path id="Path_4909" data-name="Path 4909" d="M53.514,239.715a3.563,3.563,0,1,0,3.568,3.563A3.568,3.568,0,0,0,53.514,239.715Zm0,4.7a1.132,1.132,0,1,1,1.137-1.132A1.134,1.134,0,0,1,53.514,244.41Zm0,0" transform="translate(-43.87 -210.102)" fill="#fff"/>
    <path id="Path_4910" data-name="Path 4910" d="M130.307,304.5a3.565,3.565,0,1,0,3.565,3.563A3.568,3.568,0,0,0,130.307,304.5Zm0,4.7a1.134,1.134,0,1,1,1.134-1.135A1.136,1.136,0,0,1,130.307,309.2Zm0,0" transform="translate(-111.317 -266.999)" fill="#fff"/>
    <path id="Path_4911" data-name="Path 4911" d="M206.393,240.023a3.563,3.563,0,1,0,3.568,3.564A3.568,3.568,0,0,0,206.393,240.023Zm0,4.7a1.132,1.132,0,1,1,1.137-1.132A1.134,1.134,0,0,1,206.393,244.719Zm0,0" transform="translate(-178.143 -210.373)" fill="#fff"/>
    <path id="Path_4912" data-name="Path 4912" d="M53.514,377.211a3.563,3.563,0,1,0,3.568,3.563A3.568,3.568,0,0,0,53.514,377.211Zm0,4.7a1.132,1.132,0,1,1,1.137-1.132A1.134,1.134,0,0,1,53.514,381.906Zm0,0" transform="translate(-43.87 -330.864)" fill="#fff"/>
    <path id="Path_4913" data-name="Path 4913" d="M206.393,377.523a3.563,3.563,0,1,0,3.568,3.563A3.568,3.568,0,0,0,206.393,377.523Zm0,4.7a1.132,1.132,0,1,1,1.137-1.132A1.134,1.134,0,0,1,206.393,382.219Zm0,0" transform="translate(-178.143 -331.138)" fill="#fff"/>
    <path id="Path_4914" data-name="Path 4914" d="M363.012,20.816l.021,0a1.216,1.216,0,0,0,.4-2.4l-.021,0a1.216,1.216,0,1,0-.4,2.4Zm0,0" transform="translate(-317.939 -15.723)" fill="#fff"/>
  </g>
</svg>
