<svg xmlns="http://www.w3.org/2000/svg" width="60" height="60" viewBox="0 0 272 272">
  <path id="football" d="M136,0A136,136,0,1,0,272,136,136,136,0,0,0,136,0ZM241.323,65.235,231.9,105.3l-49.656,16.551-41.708-33.36V39.335l47.6-19.039A127.7,127.7,0,0,1,241.323,65.235Zm.757,140.33-44.957,7.1-24.48-32.338,12.471-49.867,49.105-16.365,28.13,33.754A126.1,126.1,0,0,1,242.08,205.565Zm-167,7.13-45.156-7.13A126.124,126.124,0,0,1,9.655,147.836l28.108-33.754,49.105,16.365,12.471,49.893ZM9.107,134.309A126.114,126.114,0,0,1,23.982,76.378l7.353,31.28Zm98.7,42.491L95.78,128.647,136,96.473l40.229,32.187L164.194,176.8Zm132.859-69.16,7.353-31.28a126.107,126.107,0,0,1,14.875,57.931ZM175.771,15.482,136,31.388,96.017,15.555A126.469,126.469,0,0,1,175.771,15.482ZM83.65,20.4l47.817,18.95V88.491l-41.708,33.36L40.1,105.3,30.677,65.235A127.729,127.729,0,0,1,83.65,20.4ZM37.5,215.94l36.851,5.822,22.286,34.908A127.351,127.351,0,0,1,37.5,215.94Zm72.135,44.22L82.578,217.808l23.955-31.941h58.933l24.3,32.1-23.572,41.311a126.54,126.54,0,0,1-56.558.908Zm69.155-4.666,19.322-33.814,36.415-5.744A127.423,127.423,0,0,1,178.786,255.494Zm0,0" fill="#fff"/>
</svg>
