<svg id="slot-machine" xmlns="http://www.w3.org/2000/svg" width="60" height="60" viewBox="0 0 60 60">
  <g id="Group_1701" data-name="Group 1701" transform="translate(14.063 52.969)">
    <g id="Group_1700" data-name="Group 1700">
      <path id="Path_4915" data-name="Path 4915" d="M121.172,452a1.172,1.172,0,1,0,1.172,1.172A1.172,1.172,0,0,0,121.172,452Z" transform="translate(-120 -452)" fill="#fff"/>
    </g>
  </g>
  <g id="Group_1703" data-name="Group 1703" transform="translate(4.688 31.172)">
    <g id="Group_1702" data-name="Group 1702">
      <path id="Path_4916" data-name="Path 4916" d="M46.81,266.487a1.172,1.172,0,0,0-.951-.487H41.172a1.172,1.172,0,0,0,0,2.344h3.062l-1.83,5.489a1.172,1.172,0,1,0,2.224.741l2.344-7.031A1.171,1.171,0,0,0,46.81,266.487Z" transform="translate(-40 -266)" fill="#fff"/>
    </g>
  </g>
  <g id="Group_1705" data-name="Group 1705" transform="translate(18.75 31.172)">
    <g id="Group_1704" data-name="Group 1704">
      <path id="Path_4917" data-name="Path 4917" d="M166.81,266.487a1.172,1.172,0,0,0-.951-.487h-4.687a1.172,1.172,0,0,0,0,2.344h3.062l-1.83,5.489a1.172,1.172,0,1,0,2.224.741l2.344-7.031A1.171,1.171,0,0,0,166.81,266.487Z" transform="translate(-160 -266)" fill="#fff"/>
    </g>
  </g>
  <g id="Group_1707" data-name="Group 1707" transform="translate(32.813 31.172)">
    <g id="Group_1706" data-name="Group 1706">
      <path id="Path_4918" data-name="Path 4918" d="M286.81,266.487a1.172,1.172,0,0,0-.951-.487h-4.687a1.172,1.172,0,0,0,0,2.344h3.062l-1.83,5.489a1.172,1.172,0,1,0,2.224.741l2.344-7.031A1.172,1.172,0,0,0,286.81,266.487Z" transform="translate(-280 -266)" fill="#fff"/>
    </g>
  </g>
  <g id="Group_1709" data-name="Group 1709" transform="translate(18.75 52.969)">
    <g id="Group_1708" data-name="Group 1708">
      <path id="Path_4919" data-name="Path 4919" d="M170.547,452h-9.375a1.172,1.172,0,0,0,0,2.344h9.375a1.172,1.172,0,0,0,0-2.344Z" transform="translate(-160 -452)" fill="#fff"/>
    </g>
  </g>
  <g id="Group_1711" data-name="Group 1711">
    <g id="Group_1710" data-name="Group 1710">
      <path id="Path_4920" data-name="Path 4920" d="M54.141,19.453A5.858,5.858,0,0,0,50.625,30V43.242H44.531V22.266A22.266,22.266,0,0,0,0,22.266V56.484A3.52,3.52,0,0,0,3.516,60h37.5a3.52,3.52,0,0,0,3.516-3.516V52.969H51.8a5.866,5.866,0,0,0,5.859-5.859V30a5.858,5.858,0,0,0-3.516-10.545Zm-51.8,9.023H14.063V43.242H2.344Zm30.469,29.18H11.719V50.625H32.813ZM42.188,51.8v4.688a1.173,1.173,0,0,1-1.172,1.172H35.156v-8.2a1.172,1.172,0,0,0-1.172-1.172H10.547a1.172,1.172,0,0,0-1.172,1.172v8.2H3.516a1.173,1.173,0,0,1-1.172-1.172v-10.9H42.188ZM16.406,43.242V28.477H28.125V43.242Zm25.781,0H30.469V28.477H42.188Zm0-17.109H2.344V22.266a19.922,19.922,0,0,1,39.844,0Zm8.438,24.492H44.531V45.586h6.094Zm4.688-3.516a3.521,3.521,0,0,1-2.344,3.314V35.859h2.344Zm0-13.594H52.969V31.053a5.821,5.821,0,0,0,2.344,0Zm.586-5.158a3.516,3.516,0,1,1,1.758-3.046A3.521,3.521,0,0,1,55.9,28.358Z" fill="#fff"/>
    </g>
  </g>
  <g id="Group_1713" data-name="Group 1713" transform="translate(4.688 4.688)">
    <g id="Group_1712" data-name="Group 1712">
      <path id="Path_4921" data-name="Path 4921" d="M57.578,40A17.6,17.6,0,0,0,40,57.578a1.172,1.172,0,0,0,1.172,1.172H73.984a1.172,1.172,0,0,0,1.172-1.172A17.6,17.6,0,0,0,57.578,40ZM52.891,56.406h-10.5a15.235,15.235,0,0,1,30.379,0Z" transform="translate(-40 -40)" fill="#fff"/>
    </g>
  </g>
  <g id="Group_1715" data-name="Group 1715" transform="translate(21.094 9.375)">
    <g id="Group_1714" data-name="Group 1714">
      <path id="Path_4922" data-name="Path 4922" d="M181.172,80A1.172,1.172,0,0,0,180,81.172v4.688a1.172,1.172,0,0,0,2.344,0V81.172A1.172,1.172,0,0,0,181.172,80Z" transform="translate(-180 -80)" fill="#fff"/>
    </g>
  </g>
  <g id="Group_1717" data-name="Group 1717" transform="translate(12.807 12.808)">
    <g id="Group_1716" data-name="Group 1716">
      <path id="Path_4923" data-name="Path 4923" d="M114.6,112.949l-3.314-3.314a1.172,1.172,0,1,0-1.657,1.657l3.314,3.314a1.172,1.172,0,0,0,1.657-1.657Z" transform="translate(-109.29 -109.291)" fill="#fff"/>
    </g>
  </g>
  <g id="Group_1719" data-name="Group 1719" transform="translate(26.066 12.807)">
    <g id="Group_1718" data-name="Group 1718">
      <path id="Path_4924" data-name="Path 4924" d="M227.745,109.633a1.172,1.172,0,0,0-1.657,0l-3.314,3.314a1.172,1.172,0,1,0,1.657,1.657l3.314-3.314A1.172,1.172,0,0,0,227.745,109.633Z" transform="translate(-222.43 -109.29)" fill="#fff"/>
    </g>
  </g>
</svg>
