<svg xmlns="http://www.w3.org/2000/svg" viewBox="0 0 338.23 80.52"><defs><style>.cls-1{fill:#fff;}.cls-2{fill:#fddf33;}.cls-3{fill:#00a651;}.cls-4{fill:#ed1c24;}</style></defs><g id="Layer_2" data-name="Layer 2"><g id="Layer_1-2" data-name="Layer 1"><path class="cls-1" d="M69.68,54.9H56V12.53a15.07,15.07,0,0,0-.47-4.25A11.14,11.14,0,0,0,54.41,5.6a5.34,5.34,0,0,0-1.55-1.77l0-1.87h16.8Z"/><path class="cls-1" d="M80.41,54.9V12.53c0-3.47-.62-6.68-3.11-8.7l0-1.87H105c6.72,0,12.76,1.58,17.53,5.38,9.86,8,6.74,22.05-4.55,26.83L130,54.9H116.31L105.72,36.71H94.12V54.9ZM94.12,28H105c5.1.22,9.67-3.62,9.55-8.74,0-5.08-4.47-8.76-9.54-8.54H94.12Z"/><path class="cls-1" d="M139.25,12.53c0-3.47-.63-6.68-3.11-8.7l0-1.87c2,.19,4.3.3,6.82.33h19.07c8.74,0,16.63,1.42,21.21,6.77,5.07,6,5.06,16.93,0,22.93-7.24,8.32-20.32,7.07-30.27,7.1V54.9H139.25Zm24.58,17.83c13,0,12.67-19.66,0-19.66H153V30.36Z"/><path class="cls-1" d="M286.65,3.83l0-1.87h15.54l11.46,16.58L325.13,2h13.1l-17.7,25.62,0,27.32H306.8V28.43l-11-15.9a32,32,0,0,0-3.42-4.26,33.2,33.2,0,0,0-2.92-2.67A15.18,15.18,0,0,0,286.65,3.83Z"/><polygon class="cls-1" points="233.76 54.91 247.43 54.91 252.45 43.81 238.77 43.81 233.76 54.91"/><polygon class="cls-1" points="276.03 1.97 261.15 1.97 282.99 54.91 297.87 54.91 276.03 1.97"/><path class="cls-1" d="M9.44,38.6c3.12,4.82,8,7.28,14.75,7.28,6,0,8.77-2.54,8.77-5.46,0-2.06-1.26-3.48-3.2-4.59a21,21,0,0,0-5.06-2.06c-1.43-.55-4.81-1.58-6.49-2.21C9,28.4,4,23.89,4,15.58A13.28,13.28,0,0,1,9.61,4.27,22.48,22.48,0,0,1,23.52,0c8.51,0,15,3,19.56,9l-8.69,6.17c-2.36-2.85-5.9-4.27-10.53-4.27-4.3,0-7.08,1.89-7.08,4.5a4,4,0,0,0,2.27,4c.93.47,1.86.87,2.61,1.18l4.22,1.35c1.94.63,3.62,1.19,5.06,1.74,10.7,3.8,15,8.46,15,16.37,0,10.21-7.42,16.85-21.83,16.85C12.22,56.87,4,51.89,0,44.69Z"/><path class="cls-2" d="M56,80.12V66.35h4.11a3.45,3.45,0,0,1,2.51,1,3.26,3.26,0,0,1,1,2.45,2.84,2.84,0,0,1-1.88,2.86,3.4,3.4,0,0,1,2.87,3.56A3.74,3.74,0,0,1,63.44,79a3.89,3.89,0,0,1-2.85,1.13Zm1-7.84h3a2.49,2.49,0,1,0,0-5H57Zm0,6.89h3.54a2.94,2.94,0,0,0,3-3,2.86,2.86,0,0,0-.87-2.12,3,3,0,0,0-2.23-.85H57Z"/><path class="cls-2" d="M88.66,68.17a7.22,7.22,0,1,1-5-2.06A6.82,6.82,0,0,1,88.66,68.17ZM88,77.63a6.42,6.42,0,0,0,0-8.77,6.18,6.18,0,0,0-8.68,0,6.37,6.37,0,0,0,0,8.77,5.91,5.91,0,0,0,4.37,1.76A5.82,5.82,0,0,0,88,77.63Z"/><path class="cls-2" d="M103.52,80.12V66.35h4.41a3.87,3.87,0,0,1,2.86,1.15A3.79,3.79,0,0,1,112,70.32a3.94,3.94,0,0,1-2.71,3.85l3.34,6h-1.12l-3.24-5.79a2.2,2.2,0,0,1-.42,0h-3.26v5.77Zm1-6.72h3.28a3,3,0,0,0,3.1-3.08,3,3,0,0,0-3-3h-3.34Z"/><path class="cls-2" d="M125.08,80.12V66l9.67,11.76V66.35h1V80.5l-9.66-11.76V80.12Z"/><path class="cls-2" d="M168.76,80.12V67.3h-4v-1h9v1h-4V80.12Z"/><path class="cls-2" d="M196.65,68.17a7.22,7.22,0,1,1-5-2.06A6.82,6.82,0,0,1,196.65,68.17Zm-.72,9.46a6.4,6.4,0,0,0,0-8.77,5.79,5.79,0,0,0-4.32-1.78,5.87,5.87,0,0,0-4.35,1.78,6.14,6.14,0,0,0,4.35,10.53A5.78,5.78,0,0,0,195.93,77.63Z"/><path class="cls-2" d="M231.37,80.52,227,66.35h1l3.54,11.12L235.64,66l4.17,11.5,3.54-11.12h1l-4.42,14.17-4.27-11.74Z"/><path class="cls-2" d="M256.81,80.12V66.35h1V80.12Z"/><path class="cls-2" d="M271.57,80.12V66l9.66,11.76V66.35h1V80.5L272.6,68.74V80.12Z"/><path class="cls-3" d="M227.92,52.7c1.84,1.5,3.14,1.89,5.84,2.2l5-11.09c-6.15,0-11.47-.4-14.91-5.18a30.58,30.58,0,0,0,.49,8.4A11.22,11.22,0,0,0,227.92,52.7Z"/><path class="cls-4" d="M264.7,47.05c-4.62-2.89-6.75-3.24-12.25-3.24l-5,11.09a16.75,16.75,0,0,1,11.82,4.22Z"/><path class="cls-1" d="M226.62,54.29a13.12,13.12,0,0,1-4.25-6.7,20.71,20.71,0,0,1-.55-3.78H210.39V2H193.77l0,1.87A5.34,5.34,0,0,1,195.3,5.6a11.54,11.54,0,0,1,1.1,2.68,15.49,15.49,0,0,1,.46,4.25V54.9h30.56C227.16,54.72,226.9,54.52,226.62,54.29Z"/><path class="cls-1" d="M258.93,2h-5l-.19,1.87a3.08,3.08,0,0,1,.74,1.77,8.91,8.91,0,0,1-.14,2.68,19,19,0,0,1-1.45,4.25L239.7,41.75h13.68l11.49-25.39Z"/></g></g></svg>