<svg xmlns:dc="http://purl.org/dc/elements/1.1/" xmlns:cc="http://creativecommons.org/ns#" xmlns:rdf="http://www.w3.org/1999/02/22-rdf-syntax-ns#" xmlns:svg="http://www.w3.org/2000/svg" xmlns="http://www.w3.org/2000/svg" xml:space="preserve" height="242.539" width="225.625" version="1.1" style=""><rect id="backgroundrect" width="100%" height="100%" x="0" y="0" fill="none" stroke="none"/><metadata id="metadata81"><rdf:RDF><cc:Work rdf:about=""><dc:format>image/svg+xml</dc:format><dc:type rdf:resource="http://purl.org/dc/dcmitype/StillImage"/></cc:Work></rdf:RDF></metadata><defs id="defs79"/>
















<g class="currentLayer" style=""><title>Layer 1</title><g id="g44" class="" fill="#ffffff" fill-opacity="1">
	<g id="g42" fill="#ffffff" fill-opacity="1">
		<path id="path2" d="m176.03200022125245,48.98868425130844 c6.823,0 10.66,-6.366 10.66,-14.447 c0,-7.2780000000000005 -3.612,-14.155 -10.66,-14.155 c-6.991,0 -10.716,6.476 -10.716,14.442 c0,7.914 3.95,14.16 10.716,14.16 z" fill="#ffffff" fill-opacity="1"/>
		<path id="path4" d="m52.96100022125244,25.66268425130844 c0,-3.6710000000000003 -2.7510000000000003,-5.334 -7.22,-5.334 c-2.065,0 -3.27,0.11700000000000003 -4.011,0.2870000000000001 v10.605 h3.6100000000000003 c4.926,0.0010000000000000005 7.621,-2.289 7.621,-5.558 z" fill="#ffffff" fill-opacity="1"/>
		<path id="path6" d="m54.04700022125244,42.685684251308444 c0,-4.532 -3.9530000000000003,-6.361 -8.828,-6.361 h-3.493 v12.613 c0.919,0.17 2.119,0.17 3.724,0.17 c4.53,-0.004000000000000002 8.597,-1.6660000000000004 8.597,-6.422 z" fill="#ffffff" fill-opacity="1"/>
		<path id="path8" d="m23.895000221252438,242.01268425130843 h177.834 c13.198,0 23.896,-10.701 23.896,-23.896 V23.369684251308442 C225.62500022125244,10.172684251308441 214.92800022125243,-0.5263157486915588 201.73000022125245,-0.5263157486915588 H23.895000221252438 C10.701000221252443,-0.5263157486915588 2.2125244214521445e-7,10.172684251308441 2.2125244214521445e-7,23.369684251308442 v194.748 c0,13.193 10.701,23.895 23.895,23.895 zm115.893,-22.304 h-54.96 v-46.199 h54.96 zm0,-55.758 h-54.96 v-41.42 h54.96 zm0,-50.974 H84.82800022125244 V68.37368425130845 h54.96 zm66.109,82.836 c0,13.193 -10.701,23.896 -23.895,23.896 h-32.656 v-46.199 h56.551 zm0,-31.862000000000002 h-56.551 v-41.42 h56.551 zm0,-71.686 v20.708 H149.34600022125244 V68.36968425130844 h32.656 c13.203,0 23.895,10.699 23.895,23.895 zM176.26600022125245,14.713684251308441 c11.229,0 17.88,8.541 17.88,19.604 c0,12.956 -7.854,20.344 -18.458,20.344 c-10.94,0 -17.824,-8.368 -17.824,-19.66 c-0.0010000000000000005,-11.92 7.509,-20.288 18.402,-20.288 zm-35.106,0.2870000000000001 c4.76,0 8.484,0.976 10.258,1.834 l-1.54,5.673 c-2.123,-0.974 -4.699,-1.6620000000000004 -8.77,-1.6620000000000004 c-8.256,0 -14.043,4.87 -14.043,13.868 c0,8.774000000000001 5.386,13.987 13.413,13.987 c2.576,0 4.415,-0.3430000000000002 5.33,-0.7450000000000002 v-9.687 h-6.818 v-5.559 h13.642 v19.546 c-2.469,0.917 -7.281,2.18 -12.387,2.18 c-6.534,0 -11.519,-1.6640000000000001 -15.187,-5.162 c-3.439,-3.269 -5.386,-8.368 -5.386,-14.213 c0.057000000000000016,-12.266 8.71,-20.06 21.488,-20.06 zm-58.315,0.402 h8.083 l9.974,16.563 c2.518,4.303 4.812,8.77 6.59,12.956 h0.11400000000000003 c-0.516,-5.159 -0.6300000000000002,-10.146 -0.6300000000000002,-16.047 V15.406684251308441 h6.532 v38.63 h-7.334 L96.08300022125245,37.01368425130844 c-2.464,-4.245 -4.984,-8.942 -6.877,-13.301 l-0.22900000000000006,0.05800000000000002 c0.2870000000000001,4.984 0.401,10.088 0.401,16.449 V54.03668425130844 H82.83900022125245 V15.402684251308441 zm-15.077,0 h7.05 v38.629 h-7.05 zm-33.034,0.5740000000000002 c2.238,-0.46 6.303,-0.8610000000000002 10.319,-0.8610000000000002 c5.162,0 8.424,0.6880000000000004 11.005,2.467 c2.411,1.433 4.016,3.958 4.016,7.2780000000000005 c0,3.556 -2.238,6.7620000000000005 -6.42,8.31 v0.17300000000000001 c4.067,1.031 7.7940000000000005,4.245 7.7940000000000005,9.516 c0,3.439 -1.491,6.135 -3.668,8.022 c-2.753,2.353 -7.281,3.557 -14.386,3.557 c-3.899,0 -6.819,-0.2870000000000001 -8.655,-0.516 V15.976684251308441 zM20.311000221252442,92.26468425130844 c0,-13.196 10.702,-23.896 23.896,-23.896 h31.064 v44.603 h-54.96 zm0,30.271 h54.959 v41.42 H20.311000221252442 zm0,50.974 h54.959 v46.199 H44.20600022125244 c-13.194,0 -23.896,-10.702 -23.896,-23.896 v-22.303 z" fill="#ffffff" fill-opacity="1"/>
		<path id="path10" d="m48.624000221252444,87.37068425130845 c-2.425,0 -4.25,0.9680000000000002 -5.439,2.345 h-0.11000000000000003 c0.5980000000000002,-3.354 3.02,-6.445 8.123,-7.042 c0.8940000000000002,-0.11200000000000003 1.641,-0.14900000000000005 2.311,-0.11200000000000003 v-3.612 c-0.561,-0.03700000000000001 -1.3050000000000002,-0.03700000000000001 -2.311,0.10500000000000002 c-3.463,0.264 -6.408,1.458 -8.606,3.58 c-2.532,2.3850000000000002 -4.209,6.146 -4.209,10.806000000000001 c0,6.002 3.239,10.471 9.126,10.471 c5.144,0 8.536,-4.025 8.536,-8.646 c-0.005000000000000002,-4.913 -3.244,-7.8950000000000005 -7.421,-7.8950000000000005 zm-1.121,13.117 c-3.015,0 -4.506,-2.609 -4.583,-5.815 c0,-0.6350000000000002 0.10900000000000003,-1.085 0.2960000000000001,-1.452 c0.7070000000000002,-1.458 2.238,-2.497 3.9530000000000003,-2.497 c2.681,0 4.209,1.975 4.209,4.8100000000000005 c0.0010000000000000002,2.9 -1.5230000000000001,4.954 -3.875,4.954 z" fill="#ffffff" fill-opacity="1"/>
		<polygon id="polygon12" points="99.00399780273438,103.5056819319725 103.43399810791016,103.5056819319725 103.43399810791016,79.28068345785141 99.63500213623047,79.28068345785141 93.70800018310547,82.19068711996078 94.49099731445312,85.65568345785141 98.9280014038086,83.42268174886703 99.00399780273438,83.42268174886703 " fill="#ffffff" fill-opacity="1"/>
		<path id="path14" d="m118.84200022125245,95.00868425130844 c2.306,0 4.061,-0.784 5.293,-2.124 h0.07400000000000002 c-0.4480000000000001,2.308 -1.526,4.135 -3.132,5.4 c-1.339,1.085 -3.092,1.717 -4.917,1.8690000000000002 c-1.081,0.11000000000000003 -1.792,0.14900000000000005 -2.532,0.07700000000000003 v3.652 c0.7070000000000002,0.03700000000000001 1.715,0.03700000000000001 2.7560000000000002,-0.07700000000000003 c3.278,-0.22400000000000006 6.182,-1.377 8.272,-3.3120000000000003 c2.534,-2.424 4.21,-6.114 4.21,-11.294 c0,-5.92 -2.9779999999999998,-10.316 -8.644,-10.316 c-5.144,0 -8.723,3.985 -8.723,8.643 c-0.003000000000000002,4.46 3.128,7.482 7.343,7.482 zm1.1480000000000001,-12.745000000000001 c2.9859999999999998,0 4.214,2.795 4.214,6.076 c0,0.6330000000000002 -0.10600000000000002,1.006 -0.266,1.34 c-0.7050000000000002,1.118 -2.044,2.011 -3.906,2.011 c-2.534,0 -3.9859999999999998,-1.935 -3.9859999999999998,-4.434 c0,-2.9450000000000003 1.6390000000000002,-4.993 3.944,-4.993 z" fill="#ffffff" fill-opacity="1"/>
		<path id="path16" d="m167.94900022125245,90.53968425130844 v-0.07700000000000003 c2.9779999999999998,-1.047 4.476,-3.1310000000000002 4.476,-5.668 c0,-3.169 -2.534,-5.922 -7.565,-5.922 c-2.875,0 -5.591,0.929 -6.968,1.864 l1.04,3.3120000000000003 c1.009,-0.6670000000000003 2.987,-1.524 4.957,-1.524 c2.688,0 3.883,1.3760000000000001 3.883,3.059 c0,2.3850000000000002 -2.688,3.349 -4.77,3.349 h-2.091 v3.355 h2.091 c2.791,0 5.507,1.228 5.507,4.096 c0,1.9020000000000001 -1.372,3.8810000000000002 -4.877,3.8810000000000002 c-2.31,0 -4.583,-0.932 -5.5120000000000005,-1.491 l-1.046,3.47 c1.308,0.8560000000000002 3.842,1.673 6.781,1.673 c6.002,0 9.433,-3.246 9.433,-7.341 c-0.047000000000000014,-3.2800000000000002 -2.39,-5.482 -5.339,-6.036 z" fill="#ffffff" fill-opacity="1"/>
		<path id="path18" d="m176.76100022125243,93.44068425130844 c0,6.002 3.238,10.471 9.129,10.471 c5.143,0 8.531,-4.025 8.531,-8.646 c0,-4.917 -3.244,-7.898 -7.421,-7.898 c-2.422,0 -4.247,0.9680000000000002 -5.438,2.345 h-0.10700000000000003 c0.5980000000000002,-3.353 3.016,-6.445 8.116,-7.042 c0.901,-0.11200000000000003 1.6470000000000002,-0.14900000000000005 2.311,-0.11200000000000003 v-3.612 c-0.556,-0.03800000000000001 -1.302,-0.03800000000000001 -2.311,0.10500000000000002 c-3.463,0.264 -6.407,1.458 -8.605,3.58 c-2.5300000000000002,2.387 -4.205,6.149 -4.205,10.809 zm4.844,-0.21900000000000006 c0.7000000000000002,-1.458 2.24,-2.497 3.948,-2.497 c2.688,0 4.21,1.975 4.21,4.8100000000000005 c0,2.9 -1.521,4.954 -3.873,4.954 c-3.016,0 -4.504,-2.609 -4.583,-5.815 c0,-0.6360000000000002 0.11100000000000003,-1.086 0.2980000000000001,-1.452 z" fill="#ffffff" fill-opacity="1"/>
		<path id="path20" d="m53.21100022125244,131.25368425130844 h-5.407 l-9.911,15.093 v2.979 h10.991 v6.15 h4.3260000000000005 v-6.15 h3.129 v-3.464 H53.21000022125244 V131.25368425130844 zm-4.3260000000000005,8.012 v6.595 h-6.595 v-0.07400000000000002 l4.469,-6.6370000000000005 c0.7450000000000002,-1.335 1.3820000000000001,-2.566 2.121,-4.093 h0.14900000000000005 c-0.07200000000000002,1.452 -0.14400000000000004,2.834 -0.14400000000000004,4.209 z" fill="#ffffff" fill-opacity="1"/>
		<path id="path22" d="m108.20300022125244,151.67668425130844 h-9.913 v-0.07400000000000002 l2.084,-1.8250000000000002 c4.25,-3.916 7.304,-7.341 7.304,-11.598 c0,-3.943 -2.604,-7.337 -7.976,-7.337 c-3.055,0 -5.703,1.083 -7.456,2.497 l1.342,3.244 c1.23,-0.929 3.022,-2.017 5.181,-2.017 c3.169,0 4.322,1.899 4.322,4.065 c-0.040000000000000015,3.206 -2.721,6.108 -8.422,11.406 l-2.8680000000000003,2.646 v2.791 h16.398 v-3.799 h0.004000000000000002 z" fill="#ffffff" fill-opacity="1"/>
		<path id="path24" d="m121.89500022125245,155.47468425130845 h4.3260000000000005 v-6.142 h3.132 v-3.473 h-3.132 V131.25368425130844 h-5.404 l-9.913,15.093 v2.979 h10.991 zm-6.595,-9.614 v-0.07400000000000002 l4.476,-6.6370000000000005 c0.7470000000000002,-1.335 1.3820000000000001,-2.566 2.119,-4.093 h0.14900000000000005 c-0.07500000000000002,1.451 -0.14900000000000005,2.833 -0.14900000000000005,4.209 v6.595 z" fill="#ffffff" fill-opacity="1"/>
		<path id="path26" d="m163.92600022125245,152.23668425130845 c-2.306,0 -4.583,-0.934 -5.517,-1.494 l-1.036,3.473 c1.303,0.8580000000000002 3.837,1.6710000000000005 6.777,1.6710000000000005 c6.002,0 9.432,-3.244 9.432,-7.337 c-0.042000000000000016,-3.281 -2.3850000000000002,-5.483 -5.33,-6.039 v-0.07400000000000002 c2.982,-1.046 4.477,-3.132 4.477,-5.666 c0,-3.174 -2.535,-5.928 -7.57,-5.928 c-2.865,0 -5.582,0.934 -6.963,1.867 l1.04,3.313 c1.009,-0.6720000000000004 2.982,-1.526 4.952,-1.526 c2.688,0 3.878,1.377 3.878,3.058 c0,2.39 -2.684,3.351 -4.77,3.351 h-2.086 v3.355 h2.086 c2.7960000000000003,0 5.517,1.228 5.517,4.094 c-0.005000000000000002,1.903 -1.3820000000000001,3.882 -4.8870000000000005,3.882 z" fill="#ffffff" fill-opacity="1"/>
		<polygon id="polygon28" points="183.8730010986328,155.47469133138657 194.1219940185547,134.20268815755844 194.1219940185547,131.25368303060532 177.83900451660156,131.25368303060532 177.83900451660156,135.05667680501938 189.27699279785156,135.05667680501938 189.27699279785156,135.13168901205063 179.0659942626953,155.47469133138657 " fill="#ffffff" fill-opacity="1"/>
		<polygon id="polygon30" points="35.98699951171875,207.44768327474594 40.420997619628906,207.44768327474594 40.420997619628906,183.22568315267563 36.617000579833984,183.22568315267563 30.696998596191406,186.13867753744125 31.4739990234375,189.60068315267563 35.915000915527344,187.37068742513657 35.98699951171875,187.37068742513657 " fill="#ffffff" fill-opacity="1"/>
		<path id="path32" d="m57.015000221252436,207.85868425130843 c5.811,0 8.870000000000001,-4.882 8.870000000000001,-12.713000000000001 c0,-7.113 -2.7190000000000003,-12.331 -8.569,-12.331 c-5.664,0 -8.870000000000001,5.031 -8.870000000000001,12.597 c0.03700000000000001,7.3790000000000004 3.015,12.447 8.569,12.447 zm0.19100000000000006,-21.534 c2.758,0 4.063,3.313 4.063,8.938 c0,5.82 -1.381,9.096 -4.098,9.096 c-2.494,0 -4.1,-3.062 -4.1,-8.983 c-0.005000000000000002,-6.036 1.711,-9.051 4.135,-9.051 z" fill="#ffffff" fill-opacity="1"/>
		<path id="path34" d="m108.20300022125244,203.64868425130845 h-9.913 v-0.07400000000000002 l2.084,-1.8250000000000002 c4.25,-3.916 7.304,-7.341 7.304,-11.598 c0,-3.943 -2.604,-7.337 -7.976,-7.337 c-3.055,0 -5.703,1.083 -7.456,2.497 l1.342,3.243 c1.23,-0.928 3.022,-2.016 5.181,-2.016 c3.169,0 4.322,1.899 4.322,4.064 c-0.040000000000000015,3.207 -2.721,6.109 -8.422,11.407 l-2.8680000000000003,2.646 v2.791 h16.398 v-3.799 h0.004000000000000002 z" fill="#ffffff" fill-opacity="1"/>
		<polygon id="polygon36" points="118.98899841308594,207.44768327474594 123.42500305175781,207.44768327474594 123.42500305175781,183.22568315267563 119.62100219726562,183.22568315267563 113.69400024414062,186.13867753744125 114.47899627685547,189.60068315267563 118.91400146484375,187.37068742513657 118.98899841308594,187.37068742513657 " fill="#ffffff" fill-opacity="1"/>
		<path id="path38" d="m166.12900022125245,207.85868425130843 c5.139,0 8.531,-4.028 8.531,-8.648 c0,-4.914 -3.243,-7.901 -7.416,-7.901 c-2.422,0 -4.252,0.971 -5.446,2.348 h-0.10700000000000003 c0.5980000000000002,-3.355 3.02,-6.445 8.125,-7.043 c0.8960000000000002,-0.11100000000000003 1.6390000000000002,-0.14800000000000005 2.306,-0.11100000000000003 v-3.612 c-0.56,-0.03800000000000001 -1.302,-0.03800000000000001 -2.306,0.10300000000000002 c-3.472,0.266 -6.412,1.461 -8.615,3.584 c-2.524,2.3810000000000002 -4.21,6.143 -4.21,10.805 c0.009000000000000006,6.004 3.248,10.475 9.138,10.475 zm-4.289,-10.692 c0.7050000000000002,-1.461 2.235,-2.497 3.9530000000000003,-2.497 c2.6790000000000003,0 4.209,1.975 4.209,4.808 c0,2.902 -1.53,4.956 -3.873,4.956 c-3.015,0 -4.509,-2.608 -4.583,-5.815 c0,-0.6360000000000002 0.10700000000000003,-1.083 0.2940000000000001,-1.452 z" fill="#ffffff" fill-opacity="1"/>
		<path id="path40" d="m185.62800022125245,207.85868425130843 c5.815,0 8.867,-4.882 8.867,-12.713000000000001 c0,-7.113 -2.716,-12.331 -8.568,-12.331 c-5.666,0 -8.868,5.031 -8.868,12.597 c0.03800000000000001,7.3790000000000004 3.015,12.447 8.569,12.447 zm0.18600000000000005,-21.534 c2.758,0 4.061,3.313 4.061,8.938 c0,5.82 -1.372,9.096 -4.093,9.096 c-2.497,0 -4.094,-3.062 -4.094,-8.983 c-0.008000000000000004,-6.036 1.705,-9.051 4.126,-9.051 z" fill="#ffffff" fill-opacity="1"/>
	</g>
</g><g id="g46">
</g><g id="g48">
</g><g id="g50">
</g><g id="g52">
</g><g id="g54">
</g><g id="g56">
</g><g id="g58">
</g><g id="g60">
</g><g id="g62">
</g><g id="g64">
</g><g id="g66">
</g><g id="g68">
</g><g id="g70">
</g><g id="g72">
</g><g id="g74">
</g></g></svg>