<?xml version="1.0" encoding="UTF-8"?>
<svg enable-background="new 0 0 396.667 396.667" style="fill: #fff;" version="1.1" viewBox="0 0 396.667 396.667" xml:space="preserve" xmlns="http://www.w3.org/2000/svg">
		<path d="m17 87.833h362.67c9.35 0 17-7.65 17-17s-7.65-17-17-17h-362.67c-9.35 0-17 7.65-17 17s7.65 17 17 17z"/>
		<path d="m17 215.33h362.67c9.35 0 17-7.65 17-17s-7.65-17-17-17h-362.67c-9.35 0-17 7.65-17 17s7.65 17 17 17z"/>
		<path d="m17 342.83h362.67c9.35 0 17-7.65 17-17s-7.65-17-17-17h-362.67c-9.35 0-17 7.65-17 17s7.65 17 17 17z"/>
</svg>
