<?xml version="1.0" encoding="iso-8859-1"?>
<!-- Generator: Adobe Illustrator 19.0.0, SVG Export Plug-In . SVG Version: 6.00 Build 0)  -->
<svg version="1.1" id="Layer_1" xmlns="http://www.w3.org/2000/svg" xmlns:xlink="http://www.w3.org/1999/xlink" x="0px" y="0px"
	 viewBox="0 0 512.001 512.001" style="enable-background:new 0 0 512.001 512.001; fill:#fff;" xml:space="preserve">
		<path d="M256.001,0C115.613,0,0,115.613,0,256c0,112.31,74.323,209.755,175.071,242.788h1.652
			c24.775,8.258,51.2,13.213,79.277,13.213C396.388,512,512,396.387,512,256S396.388,0,256.001,0z M442.633,135.432
			c19.819,31.38,33.032,69.368,34.683,109.006l-34.683-47.897V135.432z M411.253,120.567v67.717l-57.807,14.864l-80.929-57.806
			V89.187l61.109-19.819L411.253,120.567z M331.975,229.574l-29.73,89.187h-92.49l-28.077-90.839l74.323-54.503L331.975,229.574z
			 M256.001,33.032c19.819,0,39.638,3.303,57.806,8.258l-57.806,18.167l-57.807-18.167
			C216.362,36.336,236.182,33.032,256.001,33.032z M102.4,120.567l71.02-52.852l66.065,21.471v54.504l-79.277,59.458L102.4,189.935
			V120.567z M69.368,133.781v62.761l-36.335,47.896C36.336,203.149,47.898,166.813,69.368,133.781z M54.503,272.517l39.639-51.2
			l54.504,13.213l31.38,95.794l-34.683,51.2l-67.717-21.471L54.503,272.517z M82.581,396.387l57.807,18.168l33.032,47.896
			C137.085,449.239,105.704,426.116,82.581,396.387z M304.31,447.588H203.149l-31.38-46.245l33.032-47.896h104.052l29.729,47.896
			l-33.033,46.245C304.723,447.588,304.31,447.588,304.31,447.588z M331.975,465.755l34.684-49.548l62.761-21.471
			C406.297,426.116,371.614,450.89,331.975,465.755z M431.071,360.052l-66.064,21.471l-31.38-49.548l31.38-97.445l56.155-13.213
			l37.987,51.2L431.071,360.052z"/>
</svg>
